<mxfile host="app.diagrams.net" modified="2024-01-25T12:41:08.208Z" agent="Mozilla/5.0 (Windows NT 10.0; Win64; x64) AppleWebKit/537.36 (KHTML, like Gecko) Chrome/120.0.0.0 Safari/537.36" etag="VuhjdWUCLIzXkQVEf9EG" version="23.0.1" type="github">
  <diagram name="페이지-1" id="2PkypGHD4lvb4gLcPSbV">
    <mxGraphModel dx="1434" dy="772" grid="1" gridSize="10" guides="1" tooltips="1" connect="1" arrows="1" fold="1" page="1" pageScale="1" pageWidth="827" pageHeight="1169" math="0" shadow="0">
      <root>
        <mxCell id="0" />
        <mxCell id="1" parent="0" />
        <mxCell id="7NUlDTcTAbya3Whhw6K1-1" value="회원" style="whiteSpace=wrap;html=1;align=center;" vertex="1" parent="1">
          <mxGeometry x="284" y="210" width="100" height="40" as="geometry" />
        </mxCell>
        <mxCell id="7NUlDTcTAbya3Whhw6K1-2" value="상품" style="whiteSpace=wrap;html=1;align=center;" vertex="1" parent="1">
          <mxGeometry x="560" y="290" width="100" height="40" as="geometry" />
        </mxCell>
        <mxCell id="7NUlDTcTAbya3Whhw6K1-4" value="제조업체" style="whiteSpace=wrap;html=1;align=center;" vertex="1" parent="1">
          <mxGeometry x="160" y="680" width="100" height="40" as="geometry" />
        </mxCell>
        <mxCell id="7NUlDTcTAbya3Whhw6K1-5" value="게시글" style="whiteSpace=wrap;html=1;align=center;" vertex="1" parent="1">
          <mxGeometry x="560" y="680" width="100" height="40" as="geometry" />
        </mxCell>
        <mxCell id="7NUlDTcTAbya3Whhw6K1-6" value="회원아이디" style="ellipse;whiteSpace=wrap;html=1;align=center;" vertex="1" parent="1">
          <mxGeometry x="90" y="100" width="100" height="40" as="geometry" />
        </mxCell>
        <mxCell id="7NUlDTcTAbya3Whhw6K1-7" value="비밀번호" style="ellipse;whiteSpace=wrap;html=1;align=center;" vertex="1" parent="1">
          <mxGeometry x="170" y="60" width="100" height="40" as="geometry" />
        </mxCell>
        <mxCell id="7NUlDTcTAbya3Whhw6K1-8" value="이름" style="ellipse;whiteSpace=wrap;html=1;align=center;" vertex="1" parent="1">
          <mxGeometry x="250" y="20" width="60" height="40" as="geometry" />
        </mxCell>
        <mxCell id="7NUlDTcTAbya3Whhw6K1-9" value="나이" style="ellipse;whiteSpace=wrap;html=1;align=center;" vertex="1" parent="1">
          <mxGeometry x="324" y="20" width="60" height="40" as="geometry" />
        </mxCell>
        <mxCell id="7NUlDTcTAbya3Whhw6K1-10" value="직업" style="ellipse;whiteSpace=wrap;html=1;align=center;" vertex="1" parent="1">
          <mxGeometry x="384" y="30" width="60" height="40" as="geometry" />
        </mxCell>
        <mxCell id="7NUlDTcTAbya3Whhw6K1-11" value="등급" style="ellipse;whiteSpace=wrap;html=1;align=center;" vertex="1" parent="1">
          <mxGeometry x="450" y="20" width="60" height="40" as="geometry" />
        </mxCell>
        <mxCell id="7NUlDTcTAbya3Whhw6K1-12" value="적립금" style="ellipse;whiteSpace=wrap;html=1;align=center;" vertex="1" parent="1">
          <mxGeometry x="510" y="40" width="60" height="40" as="geometry" />
        </mxCell>
        <mxCell id="7NUlDTcTAbya3Whhw6K1-16" value="" style="endArrow=none;html=1;rounded=0;entryX=0.5;entryY=1;entryDx=0;entryDy=0;exitX=0.25;exitY=0;exitDx=0;exitDy=0;" edge="1" parent="1" source="7NUlDTcTAbya3Whhw6K1-1" target="7NUlDTcTAbya3Whhw6K1-6">
          <mxGeometry width="50" height="50" relative="1" as="geometry">
            <mxPoint x="390" y="420" as="sourcePoint" />
            <mxPoint x="440" y="370" as="targetPoint" />
          </mxGeometry>
        </mxCell>
        <mxCell id="7NUlDTcTAbya3Whhw6K1-18" value="" style="endArrow=none;html=1;rounded=0;entryX=0.5;entryY=1;entryDx=0;entryDy=0;exitX=0.25;exitY=0;exitDx=0;exitDy=0;" edge="1" parent="1" source="7NUlDTcTAbya3Whhw6K1-1" target="7NUlDTcTAbya3Whhw6K1-7">
          <mxGeometry width="50" height="50" relative="1" as="geometry">
            <mxPoint x="390" y="420" as="sourcePoint" />
            <mxPoint x="440" y="370" as="targetPoint" />
          </mxGeometry>
        </mxCell>
        <mxCell id="7NUlDTcTAbya3Whhw6K1-19" value="" style="endArrow=none;html=1;rounded=0;entryX=0.5;entryY=1;entryDx=0;entryDy=0;exitX=0.25;exitY=0;exitDx=0;exitDy=0;" edge="1" parent="1" source="7NUlDTcTAbya3Whhw6K1-1" target="7NUlDTcTAbya3Whhw6K1-8">
          <mxGeometry width="50" height="50" relative="1" as="geometry">
            <mxPoint x="380" y="160" as="sourcePoint" />
            <mxPoint x="295" y="80" as="targetPoint" />
          </mxGeometry>
        </mxCell>
        <mxCell id="7NUlDTcTAbya3Whhw6K1-22" value="" style="endArrow=none;html=1;rounded=0;exitX=0.5;exitY=0;exitDx=0;exitDy=0;entryX=0.5;entryY=1;entryDx=0;entryDy=0;" edge="1" parent="1" source="7NUlDTcTAbya3Whhw6K1-2" target="7NUlDTcTAbya3Whhw6K1-28">
          <mxGeometry width="50" height="50" relative="1" as="geometry">
            <mxPoint x="630" y="275" as="sourcePoint" />
            <mxPoint x="680" y="225" as="targetPoint" />
          </mxGeometry>
        </mxCell>
        <mxCell id="7NUlDTcTAbya3Whhw6K1-23" value="" style="endArrow=none;html=1;rounded=0;entryX=0.5;entryY=1;entryDx=0;entryDy=0;exitX=0.34;exitY=-0.05;exitDx=0;exitDy=0;exitPerimeter=0;" edge="1" parent="1" source="7NUlDTcTAbya3Whhw6K1-1" target="7NUlDTcTAbya3Whhw6K1-9">
          <mxGeometry width="50" height="50" relative="1" as="geometry">
            <mxPoint x="340" y="160" as="sourcePoint" />
            <mxPoint x="350" y="80" as="targetPoint" />
          </mxGeometry>
        </mxCell>
        <mxCell id="7NUlDTcTAbya3Whhw6K1-24" value="" style="endArrow=none;html=1;rounded=0;entryX=0.5;entryY=1;entryDx=0;entryDy=0;exitX=0.5;exitY=0;exitDx=0;exitDy=0;" edge="1" parent="1" source="7NUlDTcTAbya3Whhw6K1-1" target="7NUlDTcTAbya3Whhw6K1-10">
          <mxGeometry width="50" height="50" relative="1" as="geometry">
            <mxPoint x="404" y="160" as="sourcePoint" />
            <mxPoint x="414" y="80" as="targetPoint" />
          </mxGeometry>
        </mxCell>
        <mxCell id="7NUlDTcTAbya3Whhw6K1-25" value="" style="endArrow=none;html=1;rounded=0;entryX=0.5;entryY=1;entryDx=0;entryDy=0;exitX=0.6;exitY=0.05;exitDx=0;exitDy=0;exitPerimeter=0;" edge="1" parent="1" source="7NUlDTcTAbya3Whhw6K1-1" target="7NUlDTcTAbya3Whhw6K1-11">
          <mxGeometry width="50" height="50" relative="1" as="geometry">
            <mxPoint x="370" y="158" as="sourcePoint" />
            <mxPoint x="465" y="80" as="targetPoint" />
          </mxGeometry>
        </mxCell>
        <mxCell id="7NUlDTcTAbya3Whhw6K1-26" value="" style="endArrow=none;html=1;rounded=0;entryX=0.5;entryY=1;entryDx=0;entryDy=0;" edge="1" parent="1" source="7NUlDTcTAbya3Whhw6K1-1">
          <mxGeometry width="50" height="50" relative="1" as="geometry">
            <mxPoint x="390" y="162" as="sourcePoint" />
            <mxPoint x="535" y="80" as="targetPoint" />
          </mxGeometry>
        </mxCell>
        <mxCell id="7NUlDTcTAbya3Whhw6K1-28" value="상품번호" style="ellipse;whiteSpace=wrap;html=1;align=center;" vertex="1" parent="1">
          <mxGeometry x="420" y="230" width="100" height="40" as="geometry" />
        </mxCell>
        <mxCell id="7NUlDTcTAbya3Whhw6K1-29" value="상품명" style="ellipse;whiteSpace=wrap;html=1;align=center;" vertex="1" parent="1">
          <mxGeometry x="490" y="180" width="100" height="40" as="geometry" />
        </mxCell>
        <mxCell id="7NUlDTcTAbya3Whhw6K1-30" value="재고량" style="ellipse;whiteSpace=wrap;html=1;align=center;" vertex="1" parent="1">
          <mxGeometry x="600" y="170" width="100" height="40" as="geometry" />
        </mxCell>
        <mxCell id="7NUlDTcTAbya3Whhw6K1-31" value="단가" style="ellipse;whiteSpace=wrap;html=1;align=center;" vertex="1" parent="1">
          <mxGeometry x="684" y="220" width="100" height="40" as="geometry" />
        </mxCell>
        <mxCell id="7NUlDTcTAbya3Whhw6K1-32" value="" style="endArrow=none;html=1;rounded=0;exitX=0.5;exitY=0;exitDx=0;exitDy=0;entryX=0.5;entryY=1;entryDx=0;entryDy=0;" edge="1" parent="1" source="7NUlDTcTAbya3Whhw6K1-2" target="7NUlDTcTAbya3Whhw6K1-29">
          <mxGeometry width="50" height="50" relative="1" as="geometry">
            <mxPoint x="696.13" y="293.36" as="sourcePoint" />
            <mxPoint x="524.13" y="190.36" as="targetPoint" />
          </mxGeometry>
        </mxCell>
        <mxCell id="7NUlDTcTAbya3Whhw6K1-33" value="" style="endArrow=none;html=1;rounded=0;exitX=0.5;exitY=0;exitDx=0;exitDy=0;entryX=0.5;entryY=1;entryDx=0;entryDy=0;" edge="1" parent="1" source="7NUlDTcTAbya3Whhw6K1-2" target="7NUlDTcTAbya3Whhw6K1-30">
          <mxGeometry width="50" height="50" relative="1" as="geometry">
            <mxPoint x="715.87" y="289.64" as="sourcePoint" />
            <mxPoint x="630" y="190" as="targetPoint" />
          </mxGeometry>
        </mxCell>
        <mxCell id="7NUlDTcTAbya3Whhw6K1-34" value="" style="endArrow=none;html=1;rounded=0;exitX=0.5;exitY=0;exitDx=0;exitDy=0;entryX=0.5;entryY=1;entryDx=0;entryDy=0;" edge="1" parent="1" source="7NUlDTcTAbya3Whhw6K1-2" target="7NUlDTcTAbya3Whhw6K1-31">
          <mxGeometry width="50" height="50" relative="1" as="geometry">
            <mxPoint x="714" y="290" as="sourcePoint" />
            <mxPoint x="734" y="190" as="targetPoint" />
          </mxGeometry>
        </mxCell>
        <mxCell id="7NUlDTcTAbya3Whhw6K1-35" value="제조업체명" style="ellipse;whiteSpace=wrap;html=1;align=center;" vertex="1" parent="1">
          <mxGeometry x="80" y="560" width="100" height="40" as="geometry" />
        </mxCell>
        <mxCell id="7NUlDTcTAbya3Whhw6K1-36" value="" style="endArrow=none;html=1;rounded=0;entryX=0.5;entryY=1;entryDx=0;entryDy=0;exitX=0.5;exitY=0;exitDx=0;exitDy=0;" edge="1" parent="1" source="7NUlDTcTAbya3Whhw6K1-4" target="7NUlDTcTAbya3Whhw6K1-35">
          <mxGeometry width="50" height="50" relative="1" as="geometry">
            <mxPoint x="390" y="520" as="sourcePoint" />
            <mxPoint x="440" y="470" as="targetPoint" />
          </mxGeometry>
        </mxCell>
        <mxCell id="7NUlDTcTAbya3Whhw6K1-37" value="제조업체명" style="ellipse;whiteSpace=wrap;html=1;align=center;" vertex="1" parent="1">
          <mxGeometry x="160" y="520" width="100" height="40" as="geometry" />
        </mxCell>
        <mxCell id="7NUlDTcTAbya3Whhw6K1-38" value="" style="endArrow=none;html=1;rounded=0;entryX=0.5;entryY=1;entryDx=0;entryDy=0;exitX=0.5;exitY=0;exitDx=0;exitDy=0;" edge="1" parent="1" source="7NUlDTcTAbya3Whhw6K1-4" target="7NUlDTcTAbya3Whhw6K1-37">
          <mxGeometry width="50" height="50" relative="1" as="geometry">
            <mxPoint x="320" y="680" as="sourcePoint" />
            <mxPoint x="240" y="600" as="targetPoint" />
          </mxGeometry>
        </mxCell>
      </root>
    </mxGraphModel>
  </diagram>
</mxfile>
